# xmcd CD database file
#
# Track frame offsets:
#	150
#	26732
#	48545
#	71995
#	97470
#	119800
#	142845
#	167105
#	188397
#	209375
#	233012
#	254727
#	276630
#	298662
#
# Disc length: 4274 seconds
#
# Revision: 0
# Processed by: cddbd v1.5.1PL2 Copyright (c) Steve Scherf et al.
# Submitted via: CDex 1.51
#
DISCID=e910b00e
DTITLE=Jamey Aebersold - Vol.54 - Maiden Voyage
DYEAR=1900
DGENRE=Jazz
TTITLE0=Impressions - John Coltrane
TTITLE1=Bb Blues (Shuffle-time) - Jamey Aebersold
TTITLE2=New Bossa - Jamey Aebersold
TTITLE3=Summertime - George Gershwin
TTITLE4=Watermelon Man - Herbie Handcock
TTITLE5=Song for my Father - Horace Silver
TTITLE6=Satin Doll - Duke Ellington
TTITLE7=Maiden Voyage - Herbie Handcock
TTITLE8=F Blues (Tootsie) - Jamey Aebersold
TTITLE9=Cantaloupe Island - Herbie Handcock
TTITLE10=Footprints - Wayne Shorter
TTITLE11=Doxy - Sonny Rollin
TTITLE12=Autumn leaves - Joseph Kosma
TTITLE13=III/VI7/II/V7 Progression - Jamey Aebersold
EXTD=
EXTT0=
EXTT1=
EXTT2=
EXTT3=
EXTT4=
EXTT5=
EXTT6=
EXTT7=
EXTT8=
EXTT9=
EXTT10=
EXTT11=
EXTT12=
EXTT13=
PLAYORDER=
